<?xml version="1.0" standalone="no"?><!DOCTYPE svg PUBLIC "-//W3C//DTD SVG 1.1//EN" "http://www.w3.org/Graphics/SVG/1.1/DTD/svg11.dtd"><svg t="1757384778479" class="icon" viewBox="0 0 1024 1024" version="1.1" xmlns="http://www.w3.org/2000/svg" p-id="15815" xmlns:xlink="http://www.w3.org/1999/xlink" width="400" height="400"><path d="M86.478452 0h841.88215c41.598624 0 75.533763 33.924129 75.533764 75.522753v863.782537c0 41.609634-33.93514 75.533763-75.533764 75.533764H86.478452c-41.598624 0-75.522753-33.924129-75.522753-75.533764V75.522753C10.955699 33.924129 44.879828 0 86.478452 0z m425.972989 668.044387a5.042925 5.042925 0 0 0-5.042925 5.031914v115.877161c0 2.78572 2.268215 5.042925 5.042925 5.042925H867.427097a5.042925 5.042925 0 0 0 5.031914-5.042925V673.076301a5.042925 5.042925 0 0 0-5.031914-5.031914H512.451441zM62.430968 48.590452a5.042925 5.042925 0 0 0-5.031914 5.042924v871.996559c0 48.513376-4.525419 47.500387 29.673978 12.607312l797.057377-813.199139c79.750882-81.358452 96.509247-76.447656-23.133592-76.447656H62.430968z" fill="#1296db" p-id="15816"></path><path d="M108.808258 227.570237h126.172215a5.053935 5.053935 0 0 0 5.042925-5.053936V96.344086c0-3.027957 2.257204-5.494366 5.031914-5.494366H360.932473c2.77471 0 5.031914 2.466409 5.031914 5.494366v126.172215c0 2.78572 2.257204 5.053935 5.042925 5.053936h126.172215c3.038968 0 5.505376 2.257204 5.505376 5.020903v115.877161c0 2.77471-2.466409 5.042925-5.505376 5.042925H371.007312a5.042925 5.042925 0 0 0-5.042925 5.031914v126.183226c0 3.027957-2.257204 5.505376-5.031914 5.505376H245.055312c-2.77471 0-5.031914-2.477419-5.031914-5.505376v-126.183226a5.053935 5.053935 0 0 0-5.042925-5.031914H108.808258c-3.027957 0-5.505376-2.257204-5.505376-5.042925V232.59114c0-2.77471 2.477419-5.020903 5.505376-5.020903z" fill="#1296db" p-id="15817"></path></svg>