<?xml version="1.0" standalone="no"?><!DOCTYPE svg PUBLIC "-//W3C//DTD SVG 1.1//EN" "http://www.w3.org/Graphics/SVG/1.1/DTD/svg11.dtd"><svg t="1755157355023" class="icon" viewBox="0 0 1024 1024" version="1.1" xmlns="http://www.w3.org/2000/svg" p-id="26194" xmlns:xlink="http://www.w3.org/1999/xlink" width="200" height="200"><path d="M169.984 470.016l0 84.010667 86.016 0 0-84.010667-86.016 0zM86.016 598.016l0-171.989333 852.010667 0 0 171.989333-852.010667 0zM256 297.984l0-84.010667-86.016 0 0 84.010667 86.016 0zM86.016 169.984l852.010667 0 0 171.989333-852.010667 0 0-171.989333zM169.984 726.016l0 84.010667 86.016 0 0-84.010667-86.016 0zM86.016 854.016l0-171.989333 852.010667 0 0 171.989333-852.010667 0z" fill="#ffffff" p-id="26195"></path></svg>