<?xml version="1.0" standalone="no"?><!DOCTYPE svg PUBLIC "-//W3C//DTD SVG 1.1//EN" "http://www.w3.org/Graphics/SVG/1.1/DTD/svg11.dtd"><svg t="1755157314020" class="icon" viewBox="0 0 1024 1024" version="1.1" xmlns="http://www.w3.org/2000/svg" p-id="24106" xmlns:xlink="http://www.w3.org/1999/xlink" width="200" height="200"><path d="M649.653683 0a50.8928 50.8928 0 0 0 4.5056 3.2768l312.2176 198.2464c3.584 2.2528 4.9152 4.608 4.9152 8.9088q-0.1024 182.9888-0.1024 365.9776v5.9392h-61.44v-6.7584q0-165.5808 0.2048-331.1616c0-4.608-1.6384-6.9632-5.3248-9.3184L685.288883 95.9488l-5.8368-3.584v489.984h-61.2352V90.5216c-1.8432 0.9216-3.072 1.3312-4.1984 2.048L359.144883 253.1328c-3.072 1.9456-3.3792 4.096-3.3792 7.168v670.72l194.56-122.1632v13.0048c0 17.92-0.2048 35.84 0.1024 53.76 0.1024 4.3008-1.2288 6.656-4.8128 8.9088q-108.544 67.8912-217.088 136.2944c-1.536 0.9216-2.9696 2.048-4.5056 3.1744h-1.024l-4.1984-2.8672L68.738483 862.3104 0.437683 819.2V4.608C0.437683 3.072 1.154483 1.536 1.461683 0l2.4576 1.8432Q162.229683 100.9664 320.642483 200.2944c3.3792 2.048 5.4272 1.2288 8.192-0.512L639.823283 3.6864c1.6384-1.1264 3.1744-2.4576 4.7104-3.6864zM61.058483 110.2848c-0.1024 1.536-0.2048 2.1504-0.2048 2.8672q0 333.824-0.1024 667.4432c0 3.3792 1.4336 4.8128 3.9936 6.3488L289.717683 929.792c1.3312 0.9216 2.6624 1.6384 4.608 2.7648v-5.5296q0-333.0048 0.1024-666.0096c0-3.6864-1.2288-5.7344-4.3008-7.5776L65.973683 113.152z" p-id="24107" fill="#ffffff"></path><path d="M918.453683 938.1888a174.592 174.592 0 0 1-53.6576 31.744c0 8.0896 0.1024 15.872 0 23.7568-0.2048 17.1008-12.3904 29.184-29.4912 29.2864s-36.864 0.1024-55.296 0c-16.4864-0.1024-28.7744-12.1856-29.0816-28.672-0.1024-6.9632 0.1024-14.0288-0.1024-20.992-0.1024-1.536-1.1264-3.6864-2.3552-4.3008-8.9088-4.608-18.2272-8.3968-26.9312-13.4144s-16.2816-11.1616-24.7808-17.1008l-30.5152 17.7152c-17.3056 10.1376-33.0752 5.8368-43.2128-11.6736-8.6016-15.1552-17.3056-30.208-25.9072-45.2608s-4.9152-32.5632 11.264-42.0864c9.216-5.4272 18.432-10.8544 27.8528-16.1792 2.4576-1.4336 3.7888-2.7648 3.1744-5.9392a155.5456 155.5456 0 0 1 0-55.5008c0.512-2.7648-0.512-4.1984-2.8672-5.632-9.5232-5.3248-18.944-10.8544-28.3648-16.384-15.9744-9.4208-20.2752-25.6-11.1616-41.6768s17.92-31.3344 26.9312-47.0016 25.2928-20.0704 41.1648-10.9568l32.0512 18.6368 9.216-7.168a157.3888 157.3888 0 0 1 40.448-22.7328c3.2768-1.3312 4.3008-2.8672 4.1984-6.3488-0.3072-6.7584-0.2048-13.6192 0-20.3776a28.0576 28.0576 0 0 1 28.16-27.9552c19.0464-0.2048 38.1952-0.2048 57.344 0 15.872 0.1024 27.9552 12.3904 28.2624 28.3648 0.1024 7.168-0.1024 14.336 0.1024 21.504 0.1024 1.4336 1.3312 3.584 2.56 3.9936 18.7392 7.168 35.328 17.7152 50.9952 30.8224 10.5472-6.144 20.992-12.4928 31.744-18.2272 4.1984-2.3552 9.0112-4.4032 13.7216-4.9152 11.5712-1.2288 20.8896 3.584 26.7264 13.6192q15.0528 25.1904 29.2864 50.9952c7.4752 13.5168 3.072 29.696-10.1376 37.9904-10.0352 6.2464-20.2752 12.0832-30.5152 17.8176-2.7648 1.536-3.3792 3.2768-2.8672 6.144a152.064 152.064 0 0 1-0.1024 54.8864c-0.512 3.072 0.6144 4.608 3.1744 6.0416 9.6256 5.4272 19.1488 11.0592 28.672 16.6912 15.0528 8.9088 19.5584 25.3952 10.9568 40.5504s-18.3296 32.3584-27.648 48.4352-25.1904 19.1488-40.1408 10.5472c-10.9568-6.2464-21.8112-12.5952-32.8704-19.0464zM807.452083 684.032c-67.7888 0-122.88 54.9888-122.9824 122.6752S739.356083 929.6896 806.530483 929.792A122.9824 122.9824 0 0 0 930.229683 806.4c-0.1024-67.2768-55.296-122.2656-122.7776-122.368z" p-id="24108" fill="#ffffff"></path></svg>