<?xml version="1.0" standalone="no"?><!DOCTYPE svg PUBLIC "-//W3C//DTD SVG 1.1//EN" "http://www.w3.org/Graphics/SVG/1.1/DTD/svg11.dtd"><svg t="1755155675783" class="icon" viewBox="0 0 1024 1024" version="1.1" xmlns="http://www.w3.org/2000/svg" p-id="15614" xmlns:xlink="http://www.w3.org/1999/xlink" width="200" height="200"><path d="M180.373333 143.509333v442.197334H106.666667v110.528a110.677333 110.677333 0 0 0 110.549333 110.549333H512v-73.685333l73.685333-73.706667L512 585.706667H254.08V217.216h479.018667v147.392h73.685333V143.509333H180.373333z m147.392 147.413334v73.685333h73.685334v-73.706667h-73.685334z m147.392 73.685333v-73.706667h184.234667v73.706667h-184.234667z m-147.413333 73.685333V512h73.706667v-73.706667h-73.685334zM585.728 512v-73.706667H917.333333V512h-36.842666v70.528L803.626667 659.413333l76.864 76.864v70.528H917.333333v73.706667H585.706667v-73.706667h36.842666v-70.528l76.864-76.864-76.864-76.864V512h-36.842666z m110.528 0h110.549333v40.021333l-55.253333 55.253334-55.296-55.253334V512z m110.549333 254.762667l-55.253333-55.253334-55.296 55.253334v40.021333h110.549333v-40.021333z" fill="#ffffff" p-id="15615"></path></svg>