<?xml version="1.0" standalone="no"?><!DOCTYPE svg PUBLIC "-//W3C//DTD SVG 1.1//EN" "http://www.w3.org/Graphics/SVG/1.1/DTD/svg11.dtd"><svg t="1755157410132" class="icon" viewBox="0 0 1024 1024" version="1.1" xmlns="http://www.w3.org/2000/svg" p-id="29241" xmlns:xlink="http://www.w3.org/1999/xlink" width="200" height="200"><path d="M906.047627 39.738931h-156.788146c-27.455989 0-49.493032 22.037044-49.493032 49.493032v847.342389c0 27.455989 22.037044 49.493032 49.493032 49.493032h156.788146c27.455989 0 49.493032-22.037044 49.493033-49.493032V89.231963c0-27.63662-22.037044-49.493032-49.493033-49.493032z m5.418946 896.835421c0 2.709473-2.709473 5.418945-5.418946 5.418945h-156.788146c-2.709473 0-5.418945-2.709473-5.418945-5.418945V89.231963c0-2.709473 2.709473-5.418945 5.418945-5.418945h156.788146c2.709473 0 5.418945 2.709473 5.418946 5.418945v847.342389z" fill="#ffffff" p-id="29242"></path><path d="M781.773152 692.541189h87.786912v38.293879h-87.786912zM732.28012 582.536603h188.398659v38.293879H732.28012zM732.28012 186.592344h188.398659v38.293879H732.28012z" fill="#ffffff" p-id="29243"></path><path d="M593.916387 39.738931H437.128241c-27.455989 0-49.493032 22.037044-49.493032 49.493032v847.342389c0 27.455989 22.037044 49.493032 49.493032 49.493032h156.788146c27.455989 0 49.493032-22.037044 49.493033-49.493032V89.231963c0-27.63662-22.037044-49.493032-49.493033-49.493032z m5.599577 896.835421c0 2.709473-2.709473 5.418945-5.418945 5.418945H437.128241c-2.709473 0-5.418945-2.709473-5.418945-5.418945V89.231963c0-2.709473 2.709473-5.418945 5.418945-5.418945h156.788146c2.709473 0 5.418945 2.709473 5.418946 5.418945v847.342389z" fill="#ffffff" p-id="29244"></path><path d="M472.532016 692.541189h87.786912v38.293879h-87.786912zM420.329511 582.536603H608.728171v38.293879H420.329511zM420.329511 186.592344H608.728171v38.293879H420.329511z" fill="#ffffff" p-id="29245"></path><path d="M281.785147 39.738931H124.997001c-27.455989 0-49.493032 22.037044-49.493032 49.493032v847.342389c0 27.455989 22.037044 49.493032 49.493032 49.493032H281.785147c27.455989 0 49.493032-22.037044 49.493033-49.493032V89.231963c0-27.63662-22.037044-49.493032-49.493033-49.493032z m5.599577 896.835421c0 2.709473-2.709473 5.418945-5.418945 5.418945H124.997001c-2.709473 0-5.418945-2.709473-5.418945-5.418945V89.231963c0-2.709473 2.709473-5.418945 5.418945-5.418945H281.785147c2.709473 0 5.418945 2.709473 5.418945 5.418945v847.342389z" fill="#ffffff" p-id="29246"></path><path d="M163.110249 692.541189h87.786911v38.293879H163.110249zM108.198271 582.536603h188.39866v38.293879H108.198271zM108.198271 186.592344h188.39866v38.293879H108.198271z" fill="#ffffff" p-id="29247"></path></svg>