<?xml version="1.0" standalone="no"?><!DOCTYPE svg PUBLIC "-//W3C//DTD SVG 1.1//EN" "http://www.w3.org/Graphics/SVG/1.1/DTD/svg11.dtd"><svg t="1755157232662" class="icon" viewBox="0 0 1024 1024" version="1.1" xmlns="http://www.w3.org/2000/svg" p-id="20898" xmlns:xlink="http://www.w3.org/1999/xlink" width="200" height="200"><path d="M709.632 301.056c80.896 53.76 134.656 143.872 143.872 251.392 27.136 0 53.76 9.216 80.896 17.92-9.216-143.872-80.896-269.312-197.632-341.504-9.216 17.92-9.216 45.056-27.136 72.192z m-53.76 592.896c-45.056 17.92-89.6 35.84-143.872 35.84s-98.816-9.216-143.872-35.84c-17.92 27.136-35.84 45.056-53.76 62.976 62.976 35.84 125.952 53.76 197.632 53.76s143.872-17.92 197.632-53.76c-17.92-18.432-35.84-36.352-53.76-62.976z m-485.376-341.504c9.216-108.032 62.976-197.632 143.872-251.392-9.216-27.136-17.92-53.76-27.136-80.896-116.736 71.68-188.416 206.848-197.632 350.208 27.136-9.216 54.272-17.92 80.896-17.92z m9.216 45.056C80.896 597.504 0 678.4 0 777.216s80.896 179.712 179.712 179.712 179.712-80.896 179.712-179.712-80.896-179.712-179.712-179.712zM512 13.312c-98.816 0-179.712 80.896-179.712 179.712S413.184 372.736 512 372.736s179.712-80.896 179.712-179.712S610.816 13.312 512 13.312z m332.288 584.192c-98.816 0-179.712 80.896-179.712 179.712s80.896 179.712 179.712 179.712 179.712-80.896 179.712-179.712-80.896-179.712-179.712-179.712z m-664.576 0C80.896 597.504 0 678.4 0 777.216s80.896 179.712 179.712 179.712 179.712-80.896 179.712-179.712-80.896-179.712-179.712-179.712z" fill="#ffffff" p-id="20899"></path></svg>