<?xml version="1.0" standalone="no"?><!DOCTYPE svg PUBLIC "-//W3C//DTD SVG 1.1//EN" "http://www.w3.org/Graphics/SVG/1.1/DTD/svg11.dtd"><svg t="1755157258961" class="icon" viewBox="0 0 1024 1024" version="1.1" xmlns="http://www.w3.org/2000/svg" p-id="21924" xmlns:xlink="http://www.w3.org/1999/xlink" width="200" height="200"><path d="M928 139c17.673 0 32 14.327 32 32 0 17.496-14.042 31.713-31.47 31.996L928 203H192l0.001 218.933c27.28 9.646 48.9 31.276 58.54 58.565L928 480.5c17.673 0 32 14.327 32 32 0 17.496-14.042 31.713-31.47 31.996l-0.53 0.004H250.54c-9.638 27.29-31.258 48.92-58.539 58.567L192 821.999 928 822c17.496 0 31.713 14.042 32 31.47v0.53c0 17.496-14.042 31.713-31.47 31.996L928 886H160c-17.496 0-31.713-14.042-32-31.47V603.066C90.712 589.883 64 554.31 64 512.5c0-41.81 26.712-77.383 64-90.567V171c0-17.496 14.042-31.713 31.47-31.996L160 139h768z" p-id="21925" fill="#ffffff"></path></svg>