<?xml version="1.0" standalone="no"?><!DOCTYPE svg PUBLIC "-//W3C//DTD SVG 1.1//EN" "http://www.w3.org/Graphics/SVG/1.1/DTD/svg11.dtd"><svg t="1755157384264" class="icon" viewBox="0 0 1024 1024" version="1.1" xmlns="http://www.w3.org/2000/svg" p-id="28065" xmlns:xlink="http://www.w3.org/1999/xlink" width="200" height="200"><path d="M626.6 380.2c14.1-1.8 28.8-2.9 43.5-3.3v-98.6c-11.4 9.2-26.2 17.3-43.5 24.2v77.7z m161.7 426c27.6-8.9 43.5-20.3 43.5-29.4v-70.9c-10.9 8-25.9 14.7-43.5 19.8v80.5z m0-94.2c20.6-6.5 35.7-14.6 43.5-23.1v-97.2c-10.9 8-25.9 14.7-43.5 19.8V712z m0-208v93.7c20.6-6.5 35.7-14.6 43.5-23.1v-89.5c-11.4 7.6-26.4 13.9-43.5 18.9z" fill="#ffffff" p-id="28066"></path><path d="M852.9 431c-16.8-33.7-86.2-52.1-157.8-54.1V233.8c0-64.2-131.4-98.9-255-98.9s-255 34.7-255 98.9v514.5c0 64.2 131.4 98.9 255 98.9 48 0 94.3-4.9 134.4-14.2 31.1 9.3 69.7 14.2 108.1 14.2 86.5 0 174.1-24.2 174.1-70.3V440.5c0.1-3.8-1.4-7.1-3.8-9.5zM440.1 161.2c142.6 0 230.1 42.3 230.1 72.6s-87.5 72.6-230.1 72.6S210 264.1 210 233.8s87.5-72.6 230.1-72.6zM209.9 278.3c43.8 35.6 139.1 54.4 230.1 54.4 67.4 0 137.1-10.3 186.6-30.2 17.3-6.9 32.2-15 43.5-24.2v98.6c-14.8 0.4-29.4 1.5-43.5 3.3-54.4 6.9-101 24-114.3 50.8-2.3 2.4-3.9 5.8-3.9 9.5v40.2c-22.2 2.3-45 3.8-68.4 3.8-120.6 0-207.2-29.8-230.1-62.3V278.3z m0 162.6c36.8 33.6 124.9 56.7 230.1 56.7 23.4 0 46.3-1.4 68.4-3.7v158.2c-22.2 2.3-45 3.8-68.4 3.8-120.6 0-207.2-29.8-230.1-62.3V440.9z m230.2 379.9c-142.6 0-230.1-42.2-230.1-72.6V612.4c36.8 33.6 124.9 56.7 230.1 56.7 23.4 0 46.2-1.4 68.4-3.7v111.5c0 14.7 8.9 27.1 23.7 37.3-29 4.2-60.1 6.6-92.1 6.6z m391.8-43.9c0 9-15.9 20.4-43.5 29.4-26 8.4-62.3 14.6-105.7 14.6-89.7 0-149.3-26.5-149.3-43.9v-70.9c29.8 21.9 90.7 33.5 149.3 33.5 37.1 0 75.2-4.7 105.7-13.7 17.6-5.2 32.7-11.8 43.5-19.8v70.8z m0-88c-7.9 8.5-22.9 16.6-43.5 23.1-27 8.5-63.3 14.3-105.7 14.3-74.9 0-131.2-17.8-149.3-37.4v-97.2c29.8 21.9 90.7 33.5 149.3 33.5 37.1 0 75.2-4.7 105.7-13.7 17.6-5.2 32.7-11.8 43.5-19.8v97.2z m0-114.4c-7.9 8.5-22.9 16.6-43.5 23.1-27 8.5-63.3 14.3-105.7 14.3-74.9 0-131.2-17.8-149.3-37.4V485c32.1 21.4 90.9 32.4 149.3 32.4 37.5 0 75.1-4.5 105.7-13.4 17.1-4.9 32-11.3 43.5-19v89.5zM682.6 491c-89.7 0-149.3-26.5-149.3-43.9 0-17.5 59.6-43.9 149.3-43.9s149.3 26.5 149.3 43.9S772.3 491 682.6 491z" fill="#ffffff" p-id="28067"></path><path d="M852.9 431c-16.8-33.7-86.2-52.1-157.8-54.1V233.8c0-64.2-131.4-98.9-255-98.9s-255 34.7-255 98.9v514.5c0 64.2 131.4 98.9 255 98.9 48 0 94.3-4.9 134.4-14.2 31.1 9.3 69.7 14.2 108.1 14.2 86.5 0 174.1-24.2 174.1-70.3V440.5c0.1-3.8-1.4-7.1-3.8-9.5zM439.5 171.4c142.6 0 217.8 35.5 217.8 62.3s-75.2 68.8-217.8 68.8-217.8-42-217.8-68.8 75.2-62.3 217.8-62.3zM221.7 289.5c43.1 29.6 127.3 48.8 218.4 48.8 67.4 0 149.9-16.1 186.6-32 20.6-8.9 17.3-10.2 30.6-16.8v87.4c-14.8 0.4-16.5 1.5-30.6 3.3-11.1 1.4-21.9 3.3-32.1 5.5-39.9 8.8-71.6 24-82.1 45.3-2.3 2.4-3.9 5.8-3.9 9.5v36.9c-22.2 2.3-45 3.4-68.4 3.4-120.6 0-190.9-26.7-218.4-57.9V289.5z m0 164.6c36.8 33.6 113.1 51.2 218.4 51.2 23.4 0 46.3-1.5 68.4-3.8v144.7c-19.6 5.6-45 5.6-68.4 5.6-120.6 0-195.4-33.1-218.4-65.7v-132z m0 291.1V622.4c36.8 33.6 112.5 52.9 217.8 52.9 23.4 0 46.7-2.2 69-4.6v106.2c0 14.7 8.9 23.1 23.7 33.3-29 4.3-60.1 4-92.1 4-142.6-0.1-218.4-38.6-218.4-69z m566.6 61c-26 8.4-62.3 14.6-105.7 14.6-89.7 0-149.3-26.5-149.3-43.9V706c29.8 21.9 90.7 33.5 149.3 33.5 37.1 0 75.2-4.7 105.7-13.7 17.6-5.2 32.7-11.8 43.5-19.8v70.9c0.1 9-15.9 20.4-43.5 29.3z m43.6-117.3c-7.9 8.5-22.9 16.6-43.5 23.1-27 8.5-63.3 14.3-105.7 14.3-74.9 0-131.2-17.8-149.3-37.4v-97.2c29.8 21.9 90.7 33.5 149.3 33.5 37.1 0 75.2-4.7 105.7-13.7 17.6-5.2 32.7-11.8 43.5-19.8v97.2z m-43.6-91.3c-27 8.5-63.3 14.3-105.7 14.3-74.9 0-131.2-17.8-149.3-37.4V485c32.1 21.4 90.9 32.4 149.3 32.4 37.5 0 75.1-4.5 105.7-13.4 17.1-4.9 32-11.3 43.5-19v89.5c-7.8 8.5-22.9 16.6-43.5 23.1zM682.6 491c-89.7 0-149.3-26.5-149.3-43.9 0-17.5 59.6-43.9 149.3-43.9s149.3 26.5 149.3 43.9S772.3 491 682.6 491z" fill="#ffffff" p-id="28068"></path></svg>