<?xml version="1.0" standalone="no"?><!DOCTYPE svg PUBLIC "-//W3C//DTD SVG 1.1//EN" "http://www.w3.org/Graphics/SVG/1.1/DTD/svg11.dtd"><svg t="1755155397648" class="icon" viewBox="0 0 1024 1024" version="1.1" xmlns="http://www.w3.org/2000/svg" p-id="9290" xmlns:xlink="http://www.w3.org/1999/xlink" width="200" height="200"><path d="M263.5776 76.8a64.4864 64.4864 0 0 1 64.4864 64.4864V882.688A64.4864 64.4864 0 0 1 263.5776 947.2H166.912A64.4864 64.4864 0 0 1 102.4 882.7136V76.8h161.1776z m612.5056 0a64.4864 64.4864 0 0 1 64.4864 64.4864V947.2h-161.2032a64.4864 64.4864 0 0 1-64.4608-64.4864V141.312A64.4864 64.4864 0 0 1 779.3664 76.8h96.7168z" fill="#ffffff" p-id="9291"></path><path d="M366.5408 131.5328L940.5696 947.2h-158.72a128.9472 128.9472 0 0 1-105.4464-54.7328L102.4 76.8h158.72c41.984 0 81.28 20.4288 105.4208 54.7328z" fill="#ffffff" p-id="9292"></path></svg>