<?xml version="1.0" standalone="no"?><!DOCTYPE svg PUBLIC "-//W3C//DTD SVG 1.1//EN" "http://www.w3.org/Graphics/SVG/1.1/DTD/svg11.dtd"><svg t="1755155583756" class="icon" viewBox="0 0 1024 1024" version="1.1" xmlns="http://www.w3.org/2000/svg" p-id="12571" xmlns:xlink="http://www.w3.org/1999/xlink" width="200" height="200"><path d="M711.68 243.2c38.4 0 69.12 33.536 69.12 75.264v566.272c0 41.728-30.72 75.264-69.12 75.264H133.056C94.72 960 64 926.464 64 884.736V318.464c0-41.728 30.72-75.264 69.12-75.264h578.56zM896 64a64 64 0 0 1 64 64v588.032a51.968 51.968 0 1 1-104 0V200a32 32 0 0 0-32-32H307.968a51.968 51.968 0 0 1 0-104H896z" p-id="12572" fill="#ffffff"></path></svg>