<?xml version="1.0" standalone="no"?><!DOCTYPE svg PUBLIC "-//W3C//DTD SVG 1.1//EN" "http://www.w3.org/Graphics/SVG/1.1/DTD/svg11.dtd"><svg t="1755157496144" class="icon" viewBox="0 0 1024 1024" version="1.1" xmlns="http://www.w3.org/2000/svg" p-id="31126" xmlns:xlink="http://www.w3.org/1999/xlink" width="200" height="200"><path d="M676.712107 484.48v-94.293333h-82.56l-65.834667 81.408-75.050667-92.714667 87.338667-107.989333h136.106667v-94.293334l187.008 154.026667-187.008 153.856z m0 362.922667v-94.293334h-136.106667L245.650773 388.693333h-85.333333V269.397333H299.112107l295.082666 364.416h82.56v-94.293333l187.008 153.898667-187.008 154.026666z m-377.6-92.8H160.31744V635.306667h85.333333l66.986667-82.901334 75.008 92.714667-88.618667 109.482667z m723.2-136.106667L934.418773 241.066667a66.986667 66.986667 0 0 0-36.864-45.226667L541.458773 27.946667a69.12 69.12 0 0 0-59.093333 0L126.39744 195.968a66.901333 66.901333 0 0 0-36.821333 45.226667L1.72544 618.538667a65.536 65.536 0 0 0 13.098667 56.448l246.442666 302.592c12.885333 15.872 32.469333 25.088 53.205334 25.088l395.136-0.085334c20.736 0 40.32-9.216 53.248-25.045333l246.314666-302.634667a65.706667 65.706667 0 0 0 13.141334-56.448z" p-id="31127" fill="#ffffff"></path></svg>