<?xml version="1.0" standalone="no"?><!DOCTYPE svg PUBLIC "-//W3C//DTD SVG 1.1//EN" "http://www.w3.org/Graphics/SVG/1.1/DTD/svg11.dtd"><svg t="1755157337522" class="icon" viewBox="0 0 1024 1024" version="1.1" xmlns="http://www.w3.org/2000/svg" p-id="25135" xmlns:xlink="http://www.w3.org/1999/xlink" width="200" height="200"><path d="M158.046 125.557h386.443v225.71l30.779 30.779h225.71v27.359c25.079 15.959 46.738 36.478 64.977 61.557V306.809l-10.26-23.939L643.664 70.84 623.145 64H127.266L96.488 94.779v834.443L127.266 960h294.107l-6.84-3.42v-61.557H158.046V125.557z m451.42 194.932V125.557l191.511 194.931H609.466v0.001z m222.289 256.488c0-36.478-12.539-67.257-37.618-92.336-25.079-25.079-55.288-37.618-90.626-37.618-35.338 0-65.547 12.539-90.626 37.618s-37.618 55.857-37.618 92.336v61.557h-64.978l-30.779 34.198v256.489L510.289 960h386.443l30.779-30.779V672.733l-30.779-34.198h-64.977v-61.558z m-174.411-47.878c9.12-9.12 20.519-14.819 34.198-17.099s26.219-0.57 37.618 5.13 20.519 13.679 27.359 23.939 10.26 22.229 10.26 35.908v61.557H640.244v-61.557c0-18.239 5.699-34.198 17.1-47.878z m208.609 174.412v191.511H544.489V703.511h321.464z" p-id="25136" fill="#ffffff"></path></svg>